<svg xmlns="http://www.w3.org/2000/svg" viewBox="0 0 200 200">
  <defs>
    <radialGradient id="saturnG" cx="40%" cy="40%">
      <stop offset="0%" stop-color="#ffe8a8"/>
      <stop offset="100%" stop-color="#c28a3a"/>
    </radialGradient>
  </defs>
  <ellipse cx="100" cy="105" rx="90" ry="20" fill="none" stroke="#d4a54a" stroke-width="8"/>
  <ellipse cx="100" cy="105" rx="90" ry="20" fill="none" stroke="#1a0d3a" stroke-width="2"/>
  <path d="M 10 105 A 90 20 0 0 1 190 105" stroke="#0a0528" stroke-width="10" fill="none"/>
  <circle cx="100" cy="100" r="55" fill="url(#saturnG)" stroke="#1a0d3a" stroke-width="3"/>
  <path d="M 14 108 A 90 20 0 0 0 186 108" stroke="#ffd97a" stroke-width="7" fill="none"/>
  <path d="M 14 108 A 90 20 0 0 0 186 108" stroke="#1a0d3a" stroke-width="2" fill="none"/>
  <path d="M 20 112 A 82 16 0 0 0 180 112" stroke="#c28a3a" stroke-width="3" fill="none" opacity="0.7"/>
  <path d="M 50 88 Q 100 84 150 90" stroke="#a06c28" stroke-width="3" fill="none" opacity="0.5"/>
  <path d="M 55 118 Q 100 115 148 120" stroke="#a06c28" stroke-width="3" fill="none" opacity="0.5"/>
  <g fill="#1a0d3a">
    <ellipse cx="91" cy="98" rx="2.88" ry="3.78"/>
    <ellipse cx="109" cy="98" rx="2.88" ry="3.78"/>
  </g>
  <path d="M 94.6 103.4 Q 100 108.3 105.4 103.4" stroke="#1a0d3a" stroke-width="1.98" stroke-linecap="round" fill="none"/>
</svg>
