<svg xmlns="http://www.w3.org/2000/svg" viewBox="0 0 800 480" preserveAspectRatio="xMidYMid slice" role="img">
<title>Monument placeholder</title>
<desc>Stone obelisk on pedestal flanked by lamp posts</desc>
<defs>
<linearGradient id="g0fyn6u" x1="0" y1="0" x2="1" y2="1"><stop offset="0" stop-color="#ECE3FA"></stop><stop offset="1" stop-color="#7C40D9"></stop></linearGradient>
<linearGradient id="bg0fyn6u" x1="0" y1="0" x2="0" y2="1">
<stop offset="0" stop-color="#ffffff" stop-opacity="0"></stop>
<stop offset="1" stop-color="#ffffff" stop-opacity="0.55"></stop>
</linearGradient>

</defs>
<rect width="800" height="480" fill="url(#g0fyn6u)"></rect>


<rect x="0" y="350" width="800" height="20" fill="#6D28D9" opacity="0.18"></rect>

<g fill="#6D28D9" opacity="0.3">
<rect x="60" y="240" width="30" height="120"></rect>
<rect x="710" y="240" width="30" height="120"></rect>
<path d="M60 240 Q 400 130 740 240 L 740 260 Q 400 160 60 260 Z"></path>
</g>

<rect x="350" y="290" width="100" height="60" fill="#6D28D9"></rect>
<rect x="340" y="285" width="120" height="10" fill="#5018B5"></rect>
<rect x="345" y="350" width="110" height="8" fill="#5018B5"></rect>

<polygon points="385,290 415,290 412,140 388,140" fill="#6D28D9"></polygon>
<polygon points="388,140 412,140 400,120" fill="#5018B5"></polygon>

<rect x="386" y="170" width="28" height="5" fill="#F59E0B"></rect>
<rect x="386" y="250" width="28" height="5" fill="#F59E0B"></rect>

<g fill="#F59E0B">
<circle cx="180" cy="270" r="10"></circle>
<circle cx="620" cy="270" r="10"></circle>
</g>
<g stroke="#6D28D9" stroke-width="3">
<line x1="180" y1="280" x2="180" y2="350"></line>
<line x1="620" y1="280" x2="620" y2="350"></line>
</g>

<rect x="0" y="320" width="800" height="160" fill="url(#bg0fyn6u)"></rect>
</svg>