<svg xmlns="http://www.w3.org/2000/svg" viewBox="0 0 200 200">
  <path d="M 100 20 Q 130 60 130 130 L 130 155 L 70 155 L 70 130 Q 70 60 100 20 Z" fill="#ffffff" stroke="#1a0d3a" stroke-width="3"/>
  <rect x="70" y="115" width="60" height="12" fill="#ff4f6f" stroke="#1a0d3a" stroke-width="2"/>
  <circle cx="100" cy="85" r="16" fill="#8ee0ff" stroke="#1a0d3a" stroke-width="3"/>
  <circle cx="100" cy="85" r="16" fill="#fff" opacity="0.3"/>
  <path d="M 92 78 Q 100 74 108 80" stroke="#fff" stroke-width="2" fill="none" opacity="0.8"/>
  <path d="M 70 125 L 50 168 L 70 160 Z" fill="#ff4f6f" stroke="#1a0d3a" stroke-width="3"/>
  <path d="M 130 125 L 150 168 L 130 160 Z" fill="#ff4f6f" stroke="#1a0d3a" stroke-width="3"/>
  <path d="M 80 155 Q 85 180 100 195 Q 115 180 120 155 Q 110 170 100 165 Q 90 170 80 155 Z" fill="#ffcc2a" stroke="#1a0d3a" stroke-width="2"/>
  <path d="M 90 160 Q 92 178 100 188 Q 108 178 110 160" fill="#ff4f6f"/>
</svg>
